{
	"patcher" : 	{
		"fileversion" : 1,
		"rect" : [ 790.0, 68.0, 640.0, 480.0 ],
		"bglocked" : 0,
		"defrect" : [ 790.0, 68.0, 640.0, 480.0 ],
		"openrect" : [ 0.0, 0.0, 0.0, 0.0 ],
		"openinpresentation" : 0,
		"default_fontsize" : 12.0,
		"default_fontface" : 0,
		"default_fontname" : "Arial",
		"gridonopen" : 0,
		"gridsize" : [ 15.0, 15.0 ],
		"gridsnaponopen" : 0,
		"toolbarvisible" : 1,
		"boxanimatetime" : 200,
		"imprint" : 0,
		"enablehscroll" : 1,
		"enablevscroll" : 1,
		"devicewidth" : 0.0,
		"boxes" : [ 			{
				"box" : 				{
					"maxclass" : "newobj",
					"text" : "sfinfo~",
					"numoutlets" : 6,
					"outlettype" : [ "int", "int", "float", "float", "", "" ],
					"fontname" : "Arial",
					"patching_rect" : [ 233.0, 129.0, 86.5, 20.0 ],
					"fontsize" : 12.0,
					"id" : "obj-17",
					"numinlets" : 1
				}

			}
, 			{
				"box" : 				{
					"maxclass" : "message",
					"text" : "loop 1, 1",
					"numoutlets" : 1,
					"outlettype" : [ "" ],
					"fontname" : "Arial",
					"patching_rect" : [ 100.0, 81.0, 57.0, 18.0 ],
					"fontsize" : 12.0,
					"id" : "obj-16",
					"numinlets" : 2
				}

			}
, 			{
				"box" : 				{
					"maxclass" : "message",
					"text" : "open jongly.aif",
					"numoutlets" : 1,
					"outlettype" : [ "" ],
					"fontname" : "Arial",
					"patching_rect" : [ 174.0, 77.0, 87.0, 18.0 ],
					"fontsize" : 12.0,
					"id" : "obj-14",
					"numinlets" : 2
				}

			}
, 			{
				"box" : 				{
					"maxclass" : "newobj",
					"text" : "sfplay~",
					"numoutlets" : 2,
					"outlettype" : [ "signal", "bang" ],
					"fontname" : "Arial",
					"patching_rect" : [ 174.0, 129.0, 49.0, 20.0 ],
					"fontsize" : 12.0,
					"id" : "obj-12",
					"numinlets" : 2,
					"save" : [ "#N", "sfplay~", "", 1, 120960, 0, "", ";" ]
				}

			}
, 			{
				"box" : 				{
					"maxclass" : "message",
					"text" : "clear",
					"numoutlets" : 1,
					"outlettype" : [ "" ],
					"fontname" : "Arial",
					"patching_rect" : [ 405.0, 246.0, 37.0, 18.0 ],
					"fontsize" : 12.0,
					"id" : "obj-8",
					"numinlets" : 2
				}

			}
, 			{
				"box" : 				{
					"maxclass" : "ezdac~",
					"numoutlets" : 0,
					"patching_rect" : [ 235.0, 394.0, 45.0, 45.0 ],
					"id" : "obj-6",
					"numinlets" : 2
				}

			}
, 			{
				"box" : 				{
					"maxclass" : "newobj",
					"text" : "tapout~ 5000",
					"numoutlets" : 1,
					"outlettype" : [ "signal" ],
					"fontname" : "Arial",
					"patching_rect" : [ 235.0, 329.0, 81.0, 20.0 ],
					"fontsize" : 12.0,
					"id" : "obj-5",
					"numinlets" : 1
				}

			}
, 			{
				"box" : 				{
					"maxclass" : "newobj",
					"text" : "tapin~ 5000",
					"numoutlets" : 1,
					"outlettype" : [ "tapconnect" ],
					"fontname" : "Arial",
					"patching_rect" : [ 320.0, 268.0, 74.0, 20.0 ],
					"fontsize" : 12.0,
					"id" : "obj-4",
					"numinlets" : 1
				}

			}
 ],
		"lines" : [ 			{
				"patchline" : 				{
					"source" : [ "obj-14", 0 ],
					"destination" : [ "obj-17", 0 ],
					"hidden" : 0,
					"midpoints" : [  ]
				}

			}
, 			{
				"patchline" : 				{
					"source" : [ "obj-16", 0 ],
					"destination" : [ "obj-12", 0 ],
					"hidden" : 0,
					"midpoints" : [  ]
				}

			}
, 			{
				"patchline" : 				{
					"source" : [ "obj-8", 0 ],
					"destination" : [ "obj-4", 0 ],
					"hidden" : 0,
					"midpoints" : [  ]
				}

			}
, 			{
				"patchline" : 				{
					"source" : [ "obj-14", 0 ],
					"destination" : [ "obj-12", 0 ],
					"hidden" : 0,
					"midpoints" : [  ]
				}

			}
, 			{
				"patchline" : 				{
					"source" : [ "obj-5", 0 ],
					"destination" : [ "obj-6", 1 ],
					"hidden" : 0,
					"midpoints" : [  ]
				}

			}
, 			{
				"patchline" : 				{
					"source" : [ "obj-5", 0 ],
					"destination" : [ "obj-6", 0 ],
					"hidden" : 0,
					"midpoints" : [  ]
				}

			}
, 			{
				"patchline" : 				{
					"source" : [ "obj-5", 0 ],
					"destination" : [ "obj-4", 0 ],
					"hidden" : 0,
					"midpoints" : [  ]
				}

			}
, 			{
				"patchline" : 				{
					"source" : [ "obj-4", 0 ],
					"destination" : [ "obj-5", 0 ],
					"hidden" : 0,
					"midpoints" : [  ]
				}

			}
 ]
	}

}
