{
	"patcher" : 	{
		"fileversion" : 1,
		"rect" : [ 25.0, 69.0, 994.0, 801.0 ],
		"bglocked" : 0,
		"defrect" : [ 25.0, 69.0, 994.0, 801.0 ],
		"openrect" : [ 0.0, 0.0, 0.0, 0.0 ],
		"openinpresentation" : 0,
		"default_fontsize" : 12.0,
		"default_fontface" : 0,
		"default_fontname" : "Arial",
		"gridonopen" : 0,
		"gridsize" : [ 15.0, 15.0 ],
		"gridsnaponopen" : 0,
		"toolbarvisible" : 1,
		"boxanimatetime" : 200,
		"imprint" : 0,
		"enablehscroll" : 1,
		"enablevscroll" : 1,
		"devicewidth" : 0.0,
		"boxes" : [ 			{
				"box" : 				{
					"maxclass" : "gain~",
					"numinlets" : 2,
					"patching_rect" : [ 179.0, 274.0, 38.0, 141.0 ],
					"id" : "obj-35",
					"numoutlets" : 2,
					"outlettype" : [ "signal", "int" ]
				}

			}
, 			{
				"box" : 				{
					"maxclass" : "dial",
					"numinlets" : 1,
					"patching_rect" : [ 225.0, 408.0, 40.0, 40.0 ],
					"id" : "obj-24",
					"numoutlets" : 1,
					"outlettype" : [ "float" ]
				}

			}
, 			{
				"box" : 				{
					"maxclass" : "newobj",
					"text" : "pan2",
					"numinlets" : 4,
					"patching_rect" : [ 179.0, 478.0, 59.5, 20.0 ],
					"id" : "obj-16",
					"numoutlets" : 2,
					"fontname" : "Arial",
					"outlettype" : [ "signal", "signal" ],
					"fontsize" : 12.0
				}

			}
, 			{
				"box" : 				{
					"maxclass" : "comment",
					"text" : "off",
					"numinlets" : 1,
					"patching_rect" : [ 436.0, 171.0, 24.0, 20.0 ],
					"id" : "obj-26",
					"numoutlets" : 0,
					"fontname" : "Arial",
					"fontsize" : 12.0
				}

			}
, 			{
				"box" : 				{
					"maxclass" : "comment",
					"text" : "on",
					"numinlets" : 1,
					"patching_rect" : [ 376.0, 171.0, 24.0, 20.0 ],
					"id" : "obj-39",
					"numoutlets" : 0,
					"fontname" : "Arial",
					"fontsize" : 12.0
				}

			}
, 			{
				"box" : 				{
					"maxclass" : "toggle",
					"numinlets" : 1,
					"patching_rect" : [ 406.0, 171.0, 20.0, 20.0 ],
					"id" : "obj-28",
					"numoutlets" : 1,
					"outlettype" : [ "int" ]
				}

			}
, 			{
				"box" : 				{
					"maxclass" : "message",
					"text" : "lowpass",
					"numinlets" : 2,
					"patching_rect" : [ 406.0, 216.0, 54.0, 18.0 ],
					"id" : "obj-37",
					"numoutlets" : 1,
					"fontname" : "Arial",
					"outlettype" : [ "" ],
					"fontsize" : 12.0
				}

			}
, 			{
				"box" : 				{
					"maxclass" : "flonum",
					"numinlets" : 1,
					"patching_rect" : [ 826.0, 216.0, 50.0, 20.0 ],
					"id" : "obj-36",
					"numoutlets" : 2,
					"fontname" : "Arial",
					"outlettype" : [ "float", "bang" ],
					"fontsize" : 12.0
				}

			}
, 			{
				"box" : 				{
					"maxclass" : "dial",
					"numinlets" : 1,
					"patching_rect" : [ 706.0, 156.0, 40.0, 40.0 ],
					"id" : "obj-29",
					"numoutlets" : 1,
					"outlettype" : [ "float" ],
					"size" : 3000.0
				}

			}
, 			{
				"box" : 				{
					"maxclass" : "dial",
					"numinlets" : 1,
					"patching_rect" : [ 766.0, 156.0, 40.0, 40.0 ],
					"id" : "obj-31",
					"numoutlets" : 1,
					"outlettype" : [ "float" ],
					"size" : 1.0,
					"floatoutput" : 1
				}

			}
, 			{
				"box" : 				{
					"maxclass" : "number",
					"numinlets" : 1,
					"patching_rect" : [ 706.0, 216.0, 50.0, 20.0 ],
					"id" : "obj-13",
					"numoutlets" : 2,
					"fontname" : "Arial",
					"outlettype" : [ "int", "bang" ],
					"fontsize" : 12.0
				}

			}
, 			{
				"box" : 				{
					"maxclass" : "flonum",
					"minimum" : 0.0,
					"numinlets" : 1,
					"patching_rect" : [ 766.0, 216.0, 50.0, 20.0 ],
					"triscale" : 0.1,
					"maximum" : 1.0,
					"id" : "obj-33",
					"numoutlets" : 2,
					"fontname" : "Arial",
					"outlettype" : [ "float", "bang" ],
					"fontsize" : 12.0
				}

			}
, 			{
				"box" : 				{
					"maxclass" : "dial",
					"min" : 0.6,
					"numinlets" : 1,
					"patching_rect" : [ 826.0, 156.0, 40.0, 40.0 ],
					"id" : "obj-43",
					"numoutlets" : 1,
					"outlettype" : [ "float" ],
					"size" : 12.0,
					"floatoutput" : 1
				}

			}
, 			{
				"box" : 				{
					"maxclass" : "filtergraph~",
					"numinlets" : 8,
					"patching_rect" : [ 406.0, 246.0, 439.0, 98.0 ],
					"id" : "obj-44",
					"numoutlets" : 7,
					"outlettype" : [ "list", "float", "float", "float", "float", "list", "int" ],
					"nfilters" : 1,
					"setfilter" : [ 0, 1, 1, 0, 0, 3099.855957, 1.764838, 0.6, 0.0, 0.0, 0.0, 0.0, 0.0, 0.0 ]
				}

			}
, 			{
				"box" : 				{
					"maxclass" : "newobj",
					"text" : "biquad~",
					"numinlets" : 6,
					"patching_rect" : [ 184.0, 208.0, 95.5, 20.0 ],
					"id" : "obj-45",
					"numoutlets" : 1,
					"fontname" : "Arial",
					"outlettype" : [ "signal" ],
					"fontsize" : 12.0
				}

			}
, 			{
				"box" : 				{
					"maxclass" : "comment",
					"text" : "Release",
					"numinlets" : 1,
					"patching_rect" : [ 476.0, 574.0, 57.0, 20.0 ],
					"id" : "obj-22",
					"numoutlets" : 0,
					"fontname" : "Arial",
					"fontsize" : 12.0
				}

			}
, 			{
				"box" : 				{
					"maxclass" : "comment",
					"text" : "Sustain",
					"numinlets" : 1,
					"patching_rect" : [ 423.0, 575.0, 53.0, 20.0 ],
					"id" : "obj-20",
					"numoutlets" : 0,
					"fontname" : "Arial",
					"fontsize" : 12.0
				}

			}
, 			{
				"box" : 				{
					"maxclass" : "comment",
					"text" : "Decay",
					"numinlets" : 1,
					"patching_rect" : [ 373.0, 576.0, 47.0, 20.0 ],
					"id" : "obj-18",
					"numoutlets" : 0,
					"fontname" : "Arial",
					"fontsize" : 12.0
				}

			}
, 			{
				"box" : 				{
					"maxclass" : "comment",
					"text" : "Attack",
					"numinlets" : 1,
					"patching_rect" : [ 317.0, 577.0, 47.0, 20.0 ],
					"id" : "obj-17",
					"numoutlets" : 0,
					"fontname" : "Arial",
					"fontsize" : 12.0
				}

			}
, 			{
				"box" : 				{
					"maxclass" : "dial",
					"numinlets" : 1,
					"patching_rect" : [ 372.0, 597.0, 40.0, 40.0 ],
					"id" : "obj-14",
					"numoutlets" : 1,
					"outlettype" : [ "float" ]
				}

			}
, 			{
				"box" : 				{
					"maxclass" : "dial",
					"numinlets" : 1,
					"patching_rect" : [ 477.0, 599.0, 40.0, 40.0 ],
					"id" : "obj-12",
					"numoutlets" : 1,
					"outlettype" : [ "float" ]
				}

			}
, 			{
				"box" : 				{
					"maxclass" : "dial",
					"numinlets" : 1,
					"patching_rect" : [ 423.0, 596.0, 40.0, 40.0 ],
					"id" : "obj-11",
					"numoutlets" : 1,
					"outlettype" : [ "float" ]
				}

			}
, 			{
				"box" : 				{
					"maxclass" : "dial",
					"numinlets" : 1,
					"patching_rect" : [ 318.0, 598.0, 40.0, 40.0 ],
					"id" : "obj-10",
					"numoutlets" : 1,
					"outlettype" : [ "float" ]
				}

			}
, 			{
				"box" : 				{
					"maxclass" : "levelmeter~",
					"numinlets" : 1,
					"patching_rect" : [ 34.0, 504.0, 128.0, 64.0 ],
					"id" : "obj-7",
					"numoutlets" : 1,
					"outlettype" : [ "int" ]
				}

			}
, 			{
				"box" : 				{
					"maxclass" : "newobj",
					"text" : "adsr~",
					"numinlets" : 5,
					"patching_rect" : [ 265.0, 662.0, 230.0, 20.0 ],
					"id" : "obj-5",
					"numoutlets" : 4,
					"fontname" : "Arial",
					"outlettype" : [ "signal", "signal", "", "" ],
					"fontsize" : 12.0
				}

			}
, 			{
				"box" : 				{
					"maxclass" : "comment",
					"text" : "consider window shapes",
					"numinlets" : 1,
					"patching_rect" : [ 2.0, 153.0, 150.0, 20.0 ],
					"id" : "obj-50",
					"numoutlets" : 0,
					"fontname" : "Arial",
					"fontsize" : 12.0
				}

			}
, 			{
				"box" : 				{
					"maxclass" : "flonum",
					"numinlets" : 1,
					"patching_rect" : [ 370.0, 130.0, 50.0, 20.0 ],
					"id" : "obj-48",
					"numoutlets" : 2,
					"fontname" : "Arial",
					"outlettype" : [ "float", "bang" ],
					"fontsize" : 12.0
				}

			}
, 			{
				"box" : 				{
					"maxclass" : "comment",
					"text" : "consider flonums where applicable",
					"linecount" : 2,
					"numinlets" : 1,
					"patching_rect" : [ 1.0, 112.0, 150.0, 34.0 ],
					"id" : "obj-46",
					"numoutlets" : 0,
					"fontname" : "Arial",
					"fontsize" : 12.0
				}

			}
, 			{
				"box" : 				{
					"maxclass" : "message",
					"text" : "replace",
					"numinlets" : 2,
					"patching_rect" : [ 8.0, 233.0, 50.0, 18.0 ],
					"id" : "obj-41",
					"numoutlets" : 1,
					"fontname" : "Arial",
					"outlettype" : [ "" ],
					"fontsize" : 12.0
				}

			}
, 			{
				"box" : 				{
					"maxclass" : "newobj",
					"text" : "buffer~ window gauss",
					"numinlets" : 1,
					"patching_rect" : [ 8.0, 254.0, 127.0, 20.0 ],
					"id" : "obj-42",
					"numoutlets" : 2,
					"fontname" : "Arial",
					"outlettype" : [ "float", "bang" ],
					"fontsize" : 12.0
				}

			}
, 			{
				"box" : 				{
					"maxclass" : "message",
					"text" : "replace",
					"numinlets" : 2,
					"patching_rect" : [ 8.0, 183.0, 50.0, 18.0 ],
					"id" : "obj-40",
					"numoutlets" : 1,
					"fontname" : "Arial",
					"outlettype" : [ "" ],
					"fontsize" : 12.0
				}

			}
, 			{
				"box" : 				{
					"maxclass" : "newobj",
					"text" : "buffer~ test",
					"numinlets" : 1,
					"patching_rect" : [ 8.0, 207.0, 71.0, 20.0 ],
					"id" : "obj-38",
					"numoutlets" : 2,
					"fontname" : "Arial",
					"outlettype" : [ "float", "bang" ],
					"fontsize" : 12.0
				}

			}
, 			{
				"box" : 				{
					"maxclass" : "message",
					"text" : "stop",
					"numinlets" : 2,
					"patching_rect" : [ 241.0, 528.0, 33.0, 18.0 ],
					"id" : "obj-34",
					"numoutlets" : 1,
					"fontname" : "Arial",
					"outlettype" : [ "" ],
					"fontsize" : 12.0
				}

			}
, 			{
				"box" : 				{
					"maxclass" : "message",
					"text" : "startwindow",
					"numinlets" : 2,
					"patching_rect" : [ 241.0, 502.0, 74.0, 18.0 ],
					"id" : "obj-32",
					"numoutlets" : 1,
					"fontname" : "Arial",
					"outlettype" : [ "" ],
					"fontsize" : 12.0
				}

			}
, 			{
				"box" : 				{
					"maxclass" : "ezdac~",
					"numinlets" : 2,
					"patching_rect" : [ 180.0, 523.0, 45.0, 45.0 ],
					"id" : "obj-30",
					"numoutlets" : 0
				}

			}
, 			{
				"box" : 				{
					"maxclass" : "scope~",
					"numinlets" : 2,
					"patching_rect" : [ 427.0, 27.0, 130.0, 130.0 ],
					"id" : "obj-27",
					"numoutlets" : 0
				}

			}
, 			{
				"box" : 				{
					"maxclass" : "comment",
					"text" : "Pulse interval",
					"linecount" : 2,
					"numinlets" : 1,
					"patching_rect" : [ 182.0, 60.0, 50.0, 34.0 ],
					"id" : "obj-25",
					"numoutlets" : 0,
					"fontname" : "Arial",
					"fontsize" : 12.0
				}

			}
, 			{
				"box" : 				{
					"maxclass" : "comment",
					"text" : "Pitch",
					"numinlets" : 1,
					"patching_rect" : [ 371.0, 102.0, 46.0, 20.0 ],
					"id" : "obj-23",
					"numoutlets" : 0,
					"fontname" : "Arial",
					"fontsize" : 12.0
				}

			}
, 			{
				"box" : 				{
					"maxclass" : "comment",
					"text" : "Length",
					"numinlets" : 1,
					"patching_rect" : [ 309.0, 103.0, 49.0, 20.0 ],
					"id" : "obj-21",
					"numoutlets" : 0,
					"fontname" : "Arial",
					"fontsize" : 12.0
				}

			}
, 			{
				"box" : 				{
					"maxclass" : "comment",
					"text" : "Start",
					"numinlets" : 1,
					"patching_rect" : [ 248.0, 104.0, 48.0, 20.0 ],
					"id" : "obj-19",
					"numoutlets" : 0,
					"fontname" : "Arial",
					"fontsize" : 12.0
				}

			}
, 			{
				"box" : 				{
					"maxclass" : "number",
					"numinlets" : 1,
					"patching_rect" : [ 311.0, 129.0, 50.0, 20.0 ],
					"id" : "obj-15",
					"numoutlets" : 2,
					"fontname" : "Arial",
					"outlettype" : [ "int", "bang" ],
					"fontsize" : 12.0
				}

			}
, 			{
				"box" : 				{
					"maxclass" : "number",
					"numinlets" : 1,
					"patching_rect" : [ 248.0, 130.0, 50.0, 20.0 ],
					"id" : "obj-8",
					"numoutlets" : 2,
					"fontname" : "Arial",
					"outlettype" : [ "int", "bang" ],
					"fontsize" : 12.0
				}

			}
, 			{
				"box" : 				{
					"maxclass" : "number",
					"numinlets" : 1,
					"patching_rect" : [ 182.0, 101.0, 50.0, 20.0 ],
					"id" : "obj-6",
					"numoutlets" : 2,
					"fontname" : "Arial",
					"outlettype" : [ "int", "bang" ],
					"fontsize" : 12.0
				}

			}
, 			{
				"box" : 				{
					"maxclass" : "newobj",
					"text" : "train~",
					"numinlets" : 3,
					"patching_rect" : [ 184.0, 132.0, 46.0, 20.0 ],
					"id" : "obj-4",
					"numoutlets" : 2,
					"fontname" : "Arial",
					"outlettype" : [ "signal", "bang" ],
					"fontsize" : 12.0
				}

			}
, 			{
				"box" : 				{
					"maxclass" : "comment",
					"text" : "look at train.shift~ 2 by wolek. it is an improvement on train for use with grain.pulse",
					"linecount" : 4,
					"numinlets" : 1,
					"patching_rect" : [ 3.0, 3.0, 150.0, 62.0 ],
					"id" : "obj-3",
					"numoutlets" : 0,
					"fontname" : "Arial",
					"fontsize" : 12.0
				}

			}
, 			{
				"box" : 				{
					"maxclass" : "newobj",
					"text" : "train.shift~ 2",
					"numinlets" : 2,
					"patching_rect" : [ 5.0, 68.0, 76.0, 20.0 ],
					"id" : "obj-2",
					"numoutlets" : 2,
					"fontname" : "Arial",
					"outlettype" : [ "signal", "signal" ],
					"fontsize" : 12.0
				}

			}
, 			{
				"box" : 				{
					"maxclass" : "newobj",
					"text" : "grain.pulse~ test window",
					"numinlets" : 4,
					"patching_rect" : [ 184.0, 167.0, 142.0, 20.0 ],
					"id" : "obj-1",
					"numoutlets" : 3,
					"fontname" : "Arial",
					"outlettype" : [ "signal", "signal", "" ],
					"fontsize" : 12.0
				}

			}
 ],
		"lines" : [ 			{
				"patchline" : 				{
					"source" : [ "obj-35", 0 ],
					"destination" : [ "obj-16", 0 ],
					"hidden" : 0,
					"midpoints" : [  ]
				}

			}
, 			{
				"patchline" : 				{
					"source" : [ "obj-45", 0 ],
					"destination" : [ "obj-35", 0 ],
					"hidden" : 0,
					"midpoints" : [  ]
				}

			}
, 			{
				"patchline" : 				{
					"source" : [ "obj-16", 1 ],
					"destination" : [ "obj-30", 1 ],
					"hidden" : 0,
					"midpoints" : [  ]
				}

			}
, 			{
				"patchline" : 				{
					"source" : [ "obj-16", 0 ],
					"destination" : [ "obj-30", 0 ],
					"hidden" : 0,
					"midpoints" : [  ]
				}

			}
, 			{
				"patchline" : 				{
					"source" : [ "obj-34", 0 ],
					"destination" : [ "obj-30", 0 ],
					"hidden" : 0,
					"midpoints" : [  ]
				}

			}
, 			{
				"patchline" : 				{
					"source" : [ "obj-32", 0 ],
					"destination" : [ "obj-30", 0 ],
					"hidden" : 0,
					"midpoints" : [  ]
				}

			}
, 			{
				"patchline" : 				{
					"source" : [ "obj-24", 0 ],
					"destination" : [ "obj-16", 2 ],
					"hidden" : 0,
					"midpoints" : [  ]
				}

			}
, 			{
				"patchline" : 				{
					"source" : [ "obj-48", 0 ],
					"destination" : [ "obj-1", 3 ],
					"hidden" : 0,
					"midpoints" : [  ]
				}

			}
, 			{
				"patchline" : 				{
					"source" : [ "obj-1", 1 ],
					"destination" : [ "obj-27", 0 ],
					"hidden" : 0,
					"midpoints" : [  ]
				}

			}
, 			{
				"patchline" : 				{
					"source" : [ "obj-15", 0 ],
					"destination" : [ "obj-1", 2 ],
					"hidden" : 0,
					"midpoints" : [  ]
				}

			}
, 			{
				"patchline" : 				{
					"source" : [ "obj-8", 0 ],
					"destination" : [ "obj-1", 1 ],
					"hidden" : 0,
					"midpoints" : [  ]
				}

			}
, 			{
				"patchline" : 				{
					"source" : [ "obj-4", 0 ],
					"destination" : [ "obj-1", 0 ],
					"hidden" : 0,
					"midpoints" : [  ]
				}

			}
, 			{
				"patchline" : 				{
					"source" : [ "obj-6", 0 ],
					"destination" : [ "obj-4", 0 ],
					"hidden" : 0,
					"midpoints" : [  ]
				}

			}
, 			{
				"patchline" : 				{
					"source" : [ "obj-41", 0 ],
					"destination" : [ "obj-42", 0 ],
					"hidden" : 0,
					"midpoints" : [  ]
				}

			}
, 			{
				"patchline" : 				{
					"source" : [ "obj-40", 0 ],
					"destination" : [ "obj-38", 0 ],
					"hidden" : 0,
					"midpoints" : [  ]
				}

			}
, 			{
				"patchline" : 				{
					"source" : [ "obj-10", 0 ],
					"destination" : [ "obj-5", 1 ],
					"hidden" : 0,
					"midpoints" : [  ]
				}

			}
, 			{
				"patchline" : 				{
					"source" : [ "obj-12", 0 ],
					"destination" : [ "obj-5", 4 ],
					"hidden" : 0,
					"midpoints" : [  ]
				}

			}
, 			{
				"patchline" : 				{
					"source" : [ "obj-11", 0 ],
					"destination" : [ "obj-5", 3 ],
					"hidden" : 0,
					"midpoints" : [  ]
				}

			}
, 			{
				"patchline" : 				{
					"source" : [ "obj-14", 0 ],
					"destination" : [ "obj-5", 2 ],
					"hidden" : 0,
					"midpoints" : [  ]
				}

			}
, 			{
				"patchline" : 				{
					"source" : [ "obj-44", 0 ],
					"destination" : [ "obj-45", 1 ],
					"hidden" : 0,
					"midpoints" : [ 415.5, 236.0, 208.800003, 236.0 ]
				}

			}
, 			{
				"patchline" : 				{
					"source" : [ "obj-13", 0 ],
					"destination" : [ "obj-44", 5 ],
					"hidden" : 0,
					"midpoints" : [  ]
				}

			}
, 			{
				"patchline" : 				{
					"source" : [ "obj-33", 0 ],
					"destination" : [ "obj-44", 6 ],
					"hidden" : 0,
					"midpoints" : [  ]
				}

			}
, 			{
				"patchline" : 				{
					"source" : [ "obj-31", 0 ],
					"destination" : [ "obj-33", 0 ],
					"hidden" : 0,
					"midpoints" : [  ]
				}

			}
, 			{
				"patchline" : 				{
					"source" : [ "obj-29", 0 ],
					"destination" : [ "obj-13", 0 ],
					"hidden" : 0,
					"midpoints" : [  ]
				}

			}
, 			{
				"patchline" : 				{
					"source" : [ "obj-43", 0 ],
					"destination" : [ "obj-36", 0 ],
					"hidden" : 0,
					"midpoints" : [  ]
				}

			}
, 			{
				"patchline" : 				{
					"source" : [ "obj-36", 0 ],
					"destination" : [ "obj-44", 7 ],
					"hidden" : 0,
					"midpoints" : [  ]
				}

			}
, 			{
				"patchline" : 				{
					"source" : [ "obj-37", 0 ],
					"destination" : [ "obj-44", 0 ],
					"hidden" : 0,
					"midpoints" : [  ]
				}

			}
, 			{
				"patchline" : 				{
					"source" : [ "obj-28", 0 ],
					"destination" : [ "obj-37", 0 ],
					"hidden" : 0,
					"midpoints" : [  ]
				}

			}
, 			{
				"patchline" : 				{
					"source" : [ "obj-1", 0 ],
					"destination" : [ "obj-45", 0 ],
					"hidden" : 0,
					"midpoints" : [  ]
				}

			}
 ]
	}

}
