{
	"patcher" : 	{
		"fileversion" : 1,
		"rect" : [ 25.0, 69.0, 640.0, 480.0 ],
		"bglocked" : 0,
		"defrect" : [ 25.0, 69.0, 640.0, 480.0 ],
		"openrect" : [ 0.0, 0.0, 0.0, 0.0 ],
		"openinpresentation" : 0,
		"default_fontsize" : 12.0,
		"default_fontface" : 0,
		"default_fontname" : "Arial",
		"gridonopen" : 0,
		"gridsize" : [ 15.0, 15.0 ],
		"gridsnaponopen" : 0,
		"toolbarvisible" : 1,
		"boxanimatetime" : 200,
		"imprint" : 0,
		"enablehscroll" : 1,
		"enablevscroll" : 1,
		"devicewidth" : 0.0,
		"boxes" : [ 			{
				"box" : 				{
					"maxclass" : "message",
					"text" : "startwindow",
					"numoutlets" : 1,
					"outlettype" : [ "" ],
					"id" : "obj-24",
					"fontname" : "Geneva",
					"patching_rect" : [ 170.0, 316.0, 65.0, 17.0 ],
					"fontsize" : 9.0,
					"numinlets" : 2
				}

			}
, 			{
				"box" : 				{
					"maxclass" : "message",
					"text" : "stop",
					"linecount" : 2,
					"numoutlets" : 1,
					"outlettype" : [ "" ],
					"id" : "obj-26",
					"fontname" : "Geneva",
					"patching_rect" : [ 179.0, 336.0, 27.0, 29.0 ],
					"fontsize" : 9.0,
					"numinlets" : 2
				}

			}
, 			{
				"box" : 				{
					"maxclass" : "button",
					"numoutlets" : 1,
					"outlettype" : [ "bang" ],
					"id" : "obj-15",
					"patching_rect" : [ 80.0, 190.0, 20.0, 20.0 ],
					"numinlets" : 1
				}

			}
, 			{
				"box" : 				{
					"maxclass" : "gain~",
					"numoutlets" : 2,
					"outlettype" : [ "signal", "int" ],
					"id" : "obj-13",
					"patching_rect" : [ 75.0, 286.0, 39.0, 140.0 ],
					"numinlets" : 2
				}

			}
, 			{
				"box" : 				{
					"maxclass" : "message",
					"text" : "1.",
					"hidden" : 1,
					"numoutlets" : 1,
					"outlettype" : [ "" ],
					"id" : "obj-9",
					"fontname" : "Geneva",
					"patching_rect" : [ 265.0, 156.0, 17.0, 17.0 ],
					"fontsize" : 9.0,
					"numinlets" : 2
				}

			}
, 			{
				"box" : 				{
					"maxclass" : "newobj",
					"text" : "loadbang",
					"linecount" : 2,
					"hidden" : 1,
					"numoutlets" : 1,
					"outlettype" : [ "bang" ],
					"id" : "obj-10",
					"fontname" : "Geneva",
					"patching_rect" : [ 265.0, 136.0, 45.0, 31.0 ],
					"fontsize" : 9.0,
					"numinlets" : 1
				}

			}
, 			{
				"box" : 				{
					"maxclass" : "flonum",
					"bgcolor" : [ 0.866667, 0.866667, 0.866667, 1.0 ],
					"numoutlets" : 2,
					"outlettype" : [ "float", "bang" ],
					"htextcolor" : [ 0.870588, 0.870588, 0.870588, 1.0 ],
					"id" : "obj-11",
					"fontname" : "Geneva",
					"patching_rect" : [ 225.0, 136.0, 35.0, 19.0 ],
					"triscale" : 0.9,
					"fontsize" : 9.0,
					"numinlets" : 1
				}

			}
, 			{
				"box" : 				{
					"maxclass" : "number",
					"bgcolor" : [ 0.866667, 0.866667, 0.866667, 1.0 ],
					"numoutlets" : 2,
					"outlettype" : [ "int", "bang" ],
					"htextcolor" : [ 0.870588, 0.870588, 0.870588, 1.0 ],
					"id" : "obj-12",
					"fontname" : "Geneva",
					"patching_rect" : [ 167.0, 136.0, 35.0, 19.0 ],
					"triscale" : 0.9,
					"fontsize" : 9.0,
					"numinlets" : 1
				}

			}
, 			{
				"box" : 				{
					"maxclass" : "newobj",
					"text" : "route samp_length",
					"hidden" : 1,
					"numoutlets" : 2,
					"outlettype" : [ "", "" ],
					"id" : "obj-20",
					"fontname" : "Geneva",
					"patching_rect" : [ 493.0, 98.0, 91.0, 19.0 ],
					"fontsize" : 9.0,
					"numinlets" : 1
				}

			}
, 			{
				"box" : 				{
					"maxclass" : "newobj",
					"text" : "prepend pitch_mult",
					"numoutlets" : 1,
					"outlettype" : [ "" ],
					"id" : "obj-21",
					"fontname" : "Geneva",
					"patching_rect" : [ 167.0, 188.0, 94.0, 19.0 ],
					"fontsize" : 9.0,
					"numinlets" : 1
				}

			}
, 			{
				"box" : 				{
					"maxclass" : "newobj",
					"text" : "prepend offset_bw",
					"numoutlets" : 1,
					"outlettype" : [ "" ],
					"id" : "obj-22",
					"fontname" : "Geneva",
					"patching_rect" : [ 362.0, 187.0, 92.0, 19.0 ],
					"fontsize" : 9.0,
					"numinlets" : 1
				}

			}
, 			{
				"box" : 				{
					"maxclass" : "newobj",
					"text" : "prepend samp_offset",
					"numoutlets" : 1,
					"outlettype" : [ "" ],
					"id" : "obj-23",
					"fontname" : "Geneva",
					"patching_rect" : [ 347.0, 146.0, 102.0, 19.0 ],
					"fontsize" : 9.0,
					"numinlets" : 1
				}

			}
, 			{
				"box" : 				{
					"maxclass" : "flonum",
					"bgcolor" : [ 0.866667, 0.866667, 0.866667, 1.0 ],
					"numoutlets" : 2,
					"outlettype" : [ "float", "bang" ],
					"htextcolor" : [ 0.870588, 0.870588, 0.870588, 1.0 ],
					"id" : "obj-27",
					"fontname" : "Geneva",
					"patching_rect" : [ 362.0, 168.0, 35.0, 19.0 ],
					"triscale" : 0.9,
					"fontsize" : 9.0,
					"numinlets" : 1
				}

			}
, 			{
				"box" : 				{
					"maxclass" : "newobj",
					"text" : "HStoMult",
					"numoutlets" : 1,
					"outlettype" : [ "float" ],
					"id" : "obj-30",
					"fontname" : "Geneva",
					"patching_rect" : [ 167.0, 155.0, 49.0, 19.0 ],
					"fontsize" : 9.0,
					"numinlets" : 1
				}

			}
, 			{
				"box" : 				{
					"maxclass" : "message",
					"text" : "size $1",
					"hidden" : 1,
					"numoutlets" : 1,
					"outlettype" : [ "" ],
					"id" : "obj-32",
					"fontname" : "Geneva",
					"patching_rect" : [ 493.0, 123.0, 41.0, 17.0 ],
					"fontsize" : 9.0,
					"numinlets" : 2
				}

			}
, 			{
				"box" : 				{
					"maxclass" : "slider",
					"numoutlets" : 1,
					"outlettype" : [ "" ],
					"id" : "obj-33",
					"patching_rect" : [ 347.0, 123.0, 144.0, 18.0 ],
					"size" : 615.0,
					"orientation" : 1,
					"numinlets" : 1
				}

			}
, 			{
				"box" : 				{
					"maxclass" : "comment",
					"text" : "offset in sound file",
					"numoutlets" : 0,
					"id" : "obj-35",
					"fontname" : "Geneva",
					"patching_rect" : [ 354.0, 110.0, 92.0, 19.0 ],
					"fontsize" : 9.0,
					"numinlets" : 1
				}

			}
, 			{
				"box" : 				{
					"maxclass" : "comment",
					"text" : "multiplier",
					"numoutlets" : 0,
					"id" : "obj-36",
					"fontname" : "Geneva",
					"patching_rect" : [ 221.0, 123.0, 52.0, 19.0 ],
					"fontsize" : 9.0,
					"numinlets" : 1
				}

			}
, 			{
				"box" : 				{
					"maxclass" : "comment",
					"text" : "halfstep",
					"numoutlets" : 0,
					"id" : "obj-37",
					"fontname" : "Geneva",
					"patching_rect" : [ 164.0, 123.0, 44.0, 19.0 ],
					"fontsize" : 9.0,
					"numinlets" : 1
				}

			}
, 			{
				"box" : 				{
					"maxclass" : "comment",
					"text" : "offset bandwidth",
					"numoutlets" : 0,
					"id" : "obj-40",
					"fontname" : "Geneva",
					"patching_rect" : [ 397.0, 168.0, 83.0, 19.0 ],
					"fontsize" : 9.0,
					"numinlets" : 1
				}

			}
, 			{
				"box" : 				{
					"maxclass" : "ezdac~",
					"numoutlets" : 0,
					"id" : "obj-8",
					"patching_rect" : [ 74.0, 433.0, 45.0, 45.0 ],
					"numinlets" : 2
				}

			}
, 			{
				"box" : 				{
					"maxclass" : "newobj",
					"text" : "gran.pitch.file~",
					"numoutlets" : 2,
					"outlettype" : [ "signal", "" ],
					"id" : "obj-1",
					"fontname" : "Arial",
					"patching_rect" : [ 74.0, 225.0, 89.0, 20.0 ],
					"fontsize" : 12.0,
					"numinlets" : 2
				}

			}
 ],
		"lines" : [ 			{
				"patchline" : 				{
					"source" : [ "obj-23", 0 ],
					"destination" : [ "obj-1", 1 ],
					"hidden" : 0,
					"midpoints" : [  ]
				}

			}
, 			{
				"patchline" : 				{
					"source" : [ "obj-26", 0 ],
					"destination" : [ "obj-8", 0 ],
					"hidden" : 0,
					"midpoints" : [  ]
				}

			}
, 			{
				"patchline" : 				{
					"source" : [ "obj-24", 0 ],
					"destination" : [ "obj-8", 0 ],
					"hidden" : 0,
					"midpoints" : [  ]
				}

			}
, 			{
				"patchline" : 				{
					"source" : [ "obj-15", 0 ],
					"destination" : [ "obj-1", 0 ],
					"hidden" : 0,
					"midpoints" : [  ]
				}

			}
, 			{
				"patchline" : 				{
					"source" : [ "obj-13", 0 ],
					"destination" : [ "obj-8", 1 ],
					"hidden" : 0,
					"midpoints" : [  ]
				}

			}
, 			{
				"patchline" : 				{
					"source" : [ "obj-13", 0 ],
					"destination" : [ "obj-8", 0 ],
					"hidden" : 0,
					"midpoints" : [  ]
				}

			}
, 			{
				"patchline" : 				{
					"source" : [ "obj-1", 0 ],
					"destination" : [ "obj-13", 0 ],
					"hidden" : 0,
					"midpoints" : [  ]
				}

			}
, 			{
				"patchline" : 				{
					"source" : [ "obj-22", 0 ],
					"destination" : [ "obj-1", 1 ],
					"hidden" : 0,
					"midpoints" : [  ]
				}

			}
, 			{
				"patchline" : 				{
					"source" : [ "obj-21", 0 ],
					"destination" : [ "obj-1", 1 ],
					"hidden" : 0,
					"midpoints" : [  ]
				}

			}
, 			{
				"patchline" : 				{
					"source" : [ "obj-12", 0 ],
					"destination" : [ "obj-30", 0 ],
					"hidden" : 0,
					"midpoints" : [  ]
				}

			}
, 			{
				"patchline" : 				{
					"source" : [ "obj-30", 0 ],
					"destination" : [ "obj-21", 0 ],
					"hidden" : 0,
					"midpoints" : [  ]
				}

			}
, 			{
				"patchline" : 				{
					"source" : [ "obj-11", 0 ],
					"destination" : [ "obj-21", 0 ],
					"hidden" : 0,
					"midpoints" : [ 234.5, 184.0, 176.5, 184.0 ]
				}

			}
, 			{
				"patchline" : 				{
					"source" : [ "obj-9", 0 ],
					"destination" : [ "obj-11", 0 ],
					"hidden" : 1,
					"midpoints" : [  ]
				}

			}
, 			{
				"patchline" : 				{
					"source" : [ "obj-10", 0 ],
					"destination" : [ "obj-9", 0 ],
					"hidden" : 1,
					"midpoints" : [  ]
				}

			}
, 			{
				"patchline" : 				{
					"source" : [ "obj-32", 0 ],
					"destination" : [ "obj-33", 0 ],
					"hidden" : 1,
					"midpoints" : [  ]
				}

			}
, 			{
				"patchline" : 				{
					"source" : [ "obj-33", 0 ],
					"destination" : [ "obj-23", 0 ],
					"hidden" : 0,
					"midpoints" : [  ]
				}

			}
, 			{
				"patchline" : 				{
					"source" : [ "obj-27", 0 ],
					"destination" : [ "obj-22", 0 ],
					"hidden" : 0,
					"midpoints" : [  ]
				}

			}
, 			{
				"patchline" : 				{
					"source" : [ "obj-20", 0 ],
					"destination" : [ "obj-32", 0 ],
					"hidden" : 1,
					"midpoints" : [  ]
				}

			}
 ]
	}

}
