{
	"patcher" : 	{
		"fileversion" : 1,
		"rect" : [ 25.0, 69.0, 783.0, 483.0 ],
		"bglocked" : 0,
		"defrect" : [ 25.0, 69.0, 783.0, 483.0 ],
		"openrect" : [ 0.0, 0.0, 0.0, 0.0 ],
		"openinpresentation" : 0,
		"default_fontsize" : 12.0,
		"default_fontface" : 0,
		"default_fontname" : "Arial",
		"gridonopen" : 0,
		"gridsize" : [ 15.0, 15.0 ],
		"gridsnaponopen" : 0,
		"toolbarvisible" : 1,
		"boxanimatetime" : 200,
		"imprint" : 0,
		"enablehscroll" : 1,
		"enablevscroll" : 1,
		"devicewidth" : 0.0,
		"boxes" : [ 			{
				"box" : 				{
					"maxclass" : "newobj",
					"text" : "scale 0 127 0 1",
					"numinlets" : 6,
					"numoutlets" : 1,
					"patching_rect" : [ 270.0, 165.0, 92.0, 20.0 ],
					"id" : "obj-57",
					"fontname" : "Arial",
					"outlettype" : [ "" ],
					"fontsize" : 12.0
				}

			}
, 			{
				"box" : 				{
					"maxclass" : "comment",
					"text" : "D",
					"numinlets" : 1,
					"numoutlets" : 0,
					"patching_rect" : [ 585.0, 105.0, 22.0, 20.0 ],
					"id" : "obj-56",
					"fontname" : "Arial",
					"fontsize" : 12.0
				}

			}
, 			{
				"box" : 				{
					"maxclass" : "comment",
					"text" : "C",
					"numinlets" : 1,
					"numoutlets" : 0,
					"patching_rect" : [ 525.0, 105.0, 22.0, 20.0 ],
					"id" : "obj-55",
					"fontname" : "Arial",
					"fontsize" : 12.0
				}

			}
, 			{
				"box" : 				{
					"maxclass" : "comment",
					"text" : "B",
					"numinlets" : 1,
					"numoutlets" : 0,
					"patching_rect" : [ 465.0, 105.0, 22.0, 20.0 ],
					"id" : "obj-54",
					"fontname" : "Arial",
					"fontsize" : 12.0
				}

			}
, 			{
				"box" : 				{
					"maxclass" : "comment",
					"text" : "Pad on/off?",
					"linecount" : 2,
					"numinlets" : 1,
					"numoutlets" : 0,
					"patching_rect" : [ 690.0, 90.0, 51.0, 34.0 ],
					"id" : "obj-53",
					"fontname" : "Arial",
					"fontsize" : 12.0
				}

			}
, 			{
				"box" : 				{
					"maxclass" : "comment",
					"text" : "Program/BPM ?",
					"linecount" : 2,
					"numinlets" : 1,
					"numoutlets" : 0,
					"patching_rect" : [ 630.0, 90.0, 55.0, 34.0 ],
					"id" : "obj-52",
					"fontname" : "Arial",
					"fontsize" : 12.0
				}

			}
, 			{
				"box" : 				{
					"maxclass" : "comment",
					"text" : "A",
					"numinlets" : 1,
					"numoutlets" : 0,
					"patching_rect" : [ 390.0, 105.0, 22.0, 20.0 ],
					"id" : "obj-48",
					"fontname" : "Arial",
					"fontsize" : 12.0
				}

			}
, 			{
				"box" : 				{
					"maxclass" : "comment",
					"text" : "Hold Button",
					"linecount" : 2,
					"numinlets" : 1,
					"numoutlets" : 0,
					"patching_rect" : [ 270.0, 90.0, 47.0, 34.0 ],
					"id" : "obj-47",
					"fontname" : "Arial",
					"fontsize" : 12.0
				}

			}
, 			{
				"box" : 				{
					"maxclass" : "comment",
					"text" : "FX Depth Dial ",
					"linecount" : 3,
					"numinlets" : 1,
					"numoutlets" : 0,
					"patching_rect" : [ 210.0, 90.0, 47.0, 48.0 ],
					"id" : "obj-46",
					"fontname" : "Arial",
					"fontsize" : 12.0
				}

			}
, 			{
				"box" : 				{
					"maxclass" : "comment",
					"text" : "FX Level Slider",
					"linecount" : 2,
					"numinlets" : 1,
					"numoutlets" : 0,
					"patching_rect" : [ 150.0, 90.0, 59.0, 34.0 ],
					"id" : "obj-45",
					"fontname" : "Arial",
					"fontsize" : 12.0
				}

			}
, 			{
				"box" : 				{
					"maxclass" : "number",
					"numinlets" : 1,
					"numoutlets" : 2,
					"patching_rect" : [ 690.0, 195.0, 50.0, 20.0 ],
					"id" : "obj-22",
					"fontname" : "Palatino Linotype",
					"outlettype" : [ "int", "bang" ],
					"fontsize" : 12.0
				}

			}
, 			{
				"box" : 				{
					"maxclass" : "number",
					"numinlets" : 1,
					"numoutlets" : 2,
					"patching_rect" : [ 570.0, 195.0, 50.0, 20.0 ],
					"id" : "obj-24",
					"fontname" : "Palatino Linotype",
					"outlettype" : [ "int", "bang" ],
					"fontsize" : 12.0
				}

			}
, 			{
				"box" : 				{
					"maxclass" : "number",
					"numinlets" : 1,
					"numoutlets" : 2,
					"patching_rect" : [ 630.0, 195.0, 50.0, 20.0 ],
					"id" : "obj-25",
					"fontname" : "Palatino Linotype",
					"outlettype" : [ "int", "bang" ],
					"fontsize" : 12.0
				}

			}
, 			{
				"box" : 				{
					"maxclass" : "number",
					"numinlets" : 1,
					"numoutlets" : 2,
					"patching_rect" : [ 510.0, 195.0, 50.0, 20.0 ],
					"id" : "obj-26",
					"fontname" : "Palatino Linotype",
					"outlettype" : [ "int", "bang" ],
					"fontsize" : 12.0
				}

			}
, 			{
				"box" : 				{
					"maxclass" : "newobj",
					"text" : "ctlin 92",
					"numinlets" : 1,
					"numoutlets" : 2,
					"patching_rect" : [ 690.0, 135.0, 49.0, 20.0 ],
					"id" : "obj-27",
					"fontname" : "Arial",
					"outlettype" : [ "int", "int" ],
					"fontsize" : 12.0
				}

			}
, 			{
				"box" : 				{
					"maxclass" : "newobj",
					"text" : "ctlin",
					"numinlets" : 1,
					"numoutlets" : 3,
					"patching_rect" : [ 630.0, 135.0, 46.0, 20.0 ],
					"id" : "obj-28",
					"fontname" : "Arial",
					"outlettype" : [ "int", "int", "int" ],
					"fontsize" : 12.0
				}

			}
, 			{
				"box" : 				{
					"maxclass" : "newobj",
					"text" : "ctlin 39",
					"numinlets" : 1,
					"numoutlets" : 2,
					"patching_rect" : [ 570.0, 135.0, 49.0, 20.0 ],
					"id" : "obj-32",
					"fontname" : "Arial",
					"outlettype" : [ "int", "int" ],
					"fontsize" : 12.0
				}

			}
, 			{
				"box" : 				{
					"maxclass" : "newobj",
					"text" : "ctlin 38",
					"numinlets" : 1,
					"numoutlets" : 2,
					"patching_rect" : [ 510.0, 135.0, 49.0, 20.0 ],
					"id" : "obj-33",
					"fontname" : "Arial",
					"outlettype" : [ "int", "int" ],
					"fontsize" : 12.0
				}

			}
, 			{
				"box" : 				{
					"maxclass" : "number",
					"numinlets" : 1,
					"numoutlets" : 2,
					"patching_rect" : [ 450.0, 195.0, 50.0, 20.0 ],
					"id" : "obj-15",
					"fontname" : "Palatino Linotype",
					"outlettype" : [ "int", "bang" ],
					"fontsize" : 12.0
				}

			}
, 			{
				"box" : 				{
					"maxclass" : "number",
					"numinlets" : 1,
					"numoutlets" : 2,
					"patching_rect" : [ 270.0, 195.0, 50.0, 20.0 ],
					"id" : "obj-13",
					"fontname" : "Palatino Linotype",
					"outlettype" : [ "int", "bang" ],
					"fontsize" : 12.0
				}

			}
, 			{
				"box" : 				{
					"maxclass" : "number",
					"numinlets" : 1,
					"numoutlets" : 2,
					"patching_rect" : [ 375.0, 195.0, 50.0, 20.0 ],
					"id" : "obj-14",
					"fontname" : "Palatino Linotype",
					"outlettype" : [ "int", "bang" ],
					"format" : 4,
					"fontsize" : 12.0
				}

			}
, 			{
				"box" : 				{
					"maxclass" : "number",
					"numinlets" : 1,
					"numoutlets" : 2,
					"patching_rect" : [ 150.0, 195.0, 50.0, 20.0 ],
					"id" : "obj-11",
					"fontname" : "Palatino Linotype",
					"outlettype" : [ "int", "bang" ],
					"fontsize" : 12.0
				}

			}
, 			{
				"box" : 				{
					"maxclass" : "number",
					"numinlets" : 1,
					"numoutlets" : 2,
					"patching_rect" : [ 210.0, 195.0, 50.0, 20.0 ],
					"id" : "obj-12",
					"fontname" : "Palatino Linotype",
					"outlettype" : [ "int", "bang" ],
					"fontsize" : 12.0
				}

			}
, 			{
				"box" : 				{
					"maxclass" : "newobj",
					"text" : "ctlin",
					"numinlets" : 1,
					"numoutlets" : 3,
					"patching_rect" : [ 450.0, 135.0, 46.0, 20.0 ],
					"id" : "obj-6",
					"fontname" : "Arial",
					"outlettype" : [ "int", "int", "int" ],
					"fontsize" : 12.0
				}

			}
, 			{
				"box" : 				{
					"maxclass" : "newobj",
					"text" : "notein C2",
					"numinlets" : 1,
					"numoutlets" : 3,
					"patching_rect" : [ 375.0, 135.0, 62.0, 20.0 ],
					"id" : "obj-5",
					"fontname" : "Arial",
					"outlettype" : [ "int", "int", "int" ],
					"fontsize" : 12.0
				}

			}
, 			{
				"box" : 				{
					"maxclass" : "newobj",
					"text" : "ctlin 95",
					"numinlets" : 1,
					"numoutlets" : 2,
					"patching_rect" : [ 270.0, 135.0, 49.0, 20.0 ],
					"id" : "obj-4",
					"fontname" : "Arial",
					"outlettype" : [ "int", "int" ],
					"fontsize" : 12.0
				}

			}
, 			{
				"box" : 				{
					"maxclass" : "newobj",
					"text" : "ctlin 94",
					"numinlets" : 1,
					"numoutlets" : 2,
					"patching_rect" : [ 210.0, 135.0, 49.0, 20.0 ],
					"id" : "obj-3",
					"fontname" : "Arial",
					"outlettype" : [ "int", "int" ],
					"fontsize" : 12.0
				}

			}
, 			{
				"box" : 				{
					"maxclass" : "newobj",
					"text" : "ctlin 93",
					"numinlets" : 1,
					"numoutlets" : 2,
					"patching_rect" : [ 150.0, 135.0, 49.0, 20.0 ],
					"id" : "obj-2",
					"fontname" : "Arial",
					"outlettype" : [ "int", "int" ],
					"fontsize" : 12.0
				}

			}
, 			{
				"box" : 				{
					"maxclass" : "newobj",
					"text" : "ctlin 13",
					"numinlets" : 1,
					"numoutlets" : 2,
					"patching_rect" : [ 90.0, 135.0, 49.0, 20.0 ],
					"id" : "obj-1",
					"fontname" : "Palatino Linotype",
					"outlettype" : [ "int", "int" ],
					"fontsize" : 12.0
				}

			}
, 			{
				"box" : 				{
					"maxclass" : "comment",
					"text" : "X",
					"numinlets" : 1,
					"numoutlets" : 0,
					"patching_rect" : [ 30.0, 90.0, 32.0, 34.0 ],
					"id" : "obj-31",
					"fontname" : "Palatino Linotype",
					"fontface" : 1,
					"fontsize" : 24.0
				}

			}
, 			{
				"box" : 				{
					"maxclass" : "number",
					"numinlets" : 1,
					"numoutlets" : 2,
					"patching_rect" : [ 30.0, 195.0, 50.0, 20.0 ],
					"id" : "obj-30",
					"fontname" : "Palatino Linotype",
					"outlettype" : [ "int", "bang" ],
					"fontsize" : 12.0
				}

			}
, 			{
				"box" : 				{
					"maxclass" : "newobj",
					"text" : "ctlin 12",
					"numinlets" : 1,
					"numoutlets" : 2,
					"patching_rect" : [ 30.0, 135.0, 49.0, 20.0 ],
					"id" : "obj-29",
					"fontname" : "Palatino Linotype",
					"outlettype" : [ "int", "int" ],
					"fontsize" : 12.0
				}

			}
, 			{
				"box" : 				{
					"maxclass" : "comment",
					"text" : "Y",
					"numinlets" : 1,
					"numoutlets" : 0,
					"patching_rect" : [ 90.0, 90.0, 32.0, 34.0 ],
					"id" : "obj-23",
					"fontname" : "Palatino Linotype",
					"fontface" : 1,
					"fontsize" : 24.0
				}

			}
, 			{
				"box" : 				{
					"maxclass" : "comment",
					"text" : "KAOSS PAD",
					"numinlets" : 1,
					"numoutlets" : 0,
					"patching_rect" : [ 212.0, 15.0, 156.0, 34.0 ],
					"id" : "obj-21",
					"fontname" : "Palatino Linotype",
					"fontface" : 1,
					"fontsize" : 24.0
				}

			}
, 			{
				"box" : 				{
					"maxclass" : "number",
					"numinlets" : 1,
					"numoutlets" : 2,
					"patching_rect" : [ 90.0, 195.0, 50.0, 20.0 ],
					"id" : "obj-16",
					"fontname" : "Palatino Linotype",
					"outlettype" : [ "int", "bang" ],
					"fontsize" : 12.0
				}

			}
 ],
		"lines" : [ 			{
				"patchline" : 				{
					"source" : [ "obj-6", 0 ],
					"destination" : [ "obj-15", 0 ],
					"hidden" : 0,
					"midpoints" : [  ]
				}

			}
, 			{
				"patchline" : 				{
					"source" : [ "obj-29", 0 ],
					"destination" : [ "obj-30", 0 ],
					"hidden" : 0,
					"midpoints" : [  ]
				}

			}
, 			{
				"patchline" : 				{
					"source" : [ "obj-1", 0 ],
					"destination" : [ "obj-16", 0 ],
					"hidden" : 0,
					"midpoints" : [  ]
				}

			}
, 			{
				"patchline" : 				{
					"source" : [ "obj-2", 0 ],
					"destination" : [ "obj-11", 0 ],
					"hidden" : 0,
					"midpoints" : [  ]
				}

			}
, 			{
				"patchline" : 				{
					"source" : [ "obj-3", 0 ],
					"destination" : [ "obj-12", 0 ],
					"hidden" : 0,
					"midpoints" : [  ]
				}

			}
, 			{
				"patchline" : 				{
					"source" : [ "obj-33", 0 ],
					"destination" : [ "obj-26", 0 ],
					"hidden" : 0,
					"midpoints" : [  ]
				}

			}
, 			{
				"patchline" : 				{
					"source" : [ "obj-32", 0 ],
					"destination" : [ "obj-24", 0 ],
					"hidden" : 0,
					"midpoints" : [  ]
				}

			}
, 			{
				"patchline" : 				{
					"source" : [ "obj-27", 0 ],
					"destination" : [ "obj-22", 0 ],
					"hidden" : 0,
					"midpoints" : [  ]
				}

			}
, 			{
				"patchline" : 				{
					"source" : [ "obj-28", 0 ],
					"destination" : [ "obj-25", 0 ],
					"hidden" : 0,
					"midpoints" : [  ]
				}

			}
, 			{
				"patchline" : 				{
					"source" : [ "obj-4", 0 ],
					"destination" : [ "obj-57", 0 ],
					"hidden" : 0,
					"midpoints" : [  ]
				}

			}
, 			{
				"patchline" : 				{
					"source" : [ "obj-57", 0 ],
					"destination" : [ "obj-13", 0 ],
					"hidden" : 0,
					"midpoints" : [  ]
				}

			}
, 			{
				"patchline" : 				{
					"source" : [ "obj-5", 0 ],
					"destination" : [ "obj-14", 0 ],
					"hidden" : 0,
					"midpoints" : [  ]
				}

			}
 ]
	}

}
