{
	"patcher" : 	{
		"fileversion" : 1,
		"rect" : [ 251.0, 80.0, 1099.0, 607.0 ],
		"bglocked" : 0,
		"defrect" : [ 251.0, 80.0, 1099.0, 607.0 ],
		"openrect" : [ 0.0, 0.0, 0.0, 0.0 ],
		"openinpresentation" : 0,
		"default_fontsize" : 12.0,
		"default_fontface" : 0,
		"default_fontname" : "Arial",
		"gridonopen" : 0,
		"gridsize" : [ 15.0, 15.0 ],
		"gridsnaponopen" : 0,
		"toolbarvisible" : 1,
		"boxanimatetime" : 200,
		"imprint" : 0,
		"enablehscroll" : 1,
		"enablevscroll" : 1,
		"devicewidth" : 0.0,
		"boxes" : [ 			{
				"box" : 				{
					"maxclass" : "outlet",
					"id" : "obj-13",
					"numinlets" : 1,
					"numoutlets" : 0,
					"patching_rect" : [ 1005.0, 240.0, 25.0, 25.0 ],
					"comment" : "8"
				}

			}
, 			{
				"box" : 				{
					"maxclass" : "outlet",
					"id" : "obj-12",
					"numinlets" : 1,
					"numoutlets" : 0,
					"patching_rect" : [ 930.0, 240.0, 25.0, 25.0 ],
					"comment" : "7"
				}

			}
, 			{
				"box" : 				{
					"maxclass" : "outlet",
					"id" : "obj-11",
					"numinlets" : 1,
					"numoutlets" : 0,
					"patching_rect" : [ 870.0, 240.0, 25.0, 25.0 ],
					"comment" : "6"
				}

			}
, 			{
				"box" : 				{
					"maxclass" : "outlet",
					"id" : "obj-10",
					"numinlets" : 1,
					"numoutlets" : 0,
					"patching_rect" : [ 765.0, 240.0, 25.0, 25.0 ],
					"comment" : "5"
				}

			}
, 			{
				"box" : 				{
					"maxclass" : "outlet",
					"id" : "obj-9",
					"numinlets" : 1,
					"numoutlets" : 0,
					"patching_rect" : [ 660.0, 240.0, 25.0, 25.0 ],
					"comment" : "4"
				}

			}
, 			{
				"box" : 				{
					"maxclass" : "outlet",
					"id" : "obj-8",
					"numinlets" : 1,
					"numoutlets" : 0,
					"patching_rect" : [ 570.0, 240.0, 25.0, 25.0 ],
					"comment" : "3"
				}

			}
, 			{
				"box" : 				{
					"maxclass" : "outlet",
					"id" : "obj-7",
					"numinlets" : 1,
					"numoutlets" : 0,
					"patching_rect" : [ 465.0, 240.0, 25.0, 25.0 ],
					"comment" : "2"
				}

			}
, 			{
				"box" : 				{
					"maxclass" : "outlet",
					"id" : "obj-6",
					"numinlets" : 1,
					"numoutlets" : 0,
					"patching_rect" : [ 375.0, 240.0, 25.0, 25.0 ],
					"comment" : "1"
				}

			}
, 			{
				"box" : 				{
					"maxclass" : "outlet",
					"id" : "obj-5",
					"numinlets" : 1,
					"numoutlets" : 0,
					"patching_rect" : [ 270.0, 240.0, 25.0, 25.0 ],
					"comment" : "Hold Button"
				}

			}
, 			{
				"box" : 				{
					"maxclass" : "outlet",
					"id" : "obj-4",
					"numinlets" : 1,
					"numoutlets" : 0,
					"patching_rect" : [ 210.0, 240.0, 25.0, 25.0 ],
					"comment" : "FX Depth Dial"
				}

			}
, 			{
				"box" : 				{
					"maxclass" : "outlet",
					"id" : "obj-3",
					"numinlets" : 1,
					"numoutlets" : 0,
					"patching_rect" : [ 150.0, 240.0, 25.0, 25.0 ],
					"comment" : "FX Level Slider"
				}

			}
, 			{
				"box" : 				{
					"maxclass" : "outlet",
					"id" : "obj-2",
					"numinlets" : 1,
					"numoutlets" : 0,
					"patching_rect" : [ 90.0, 240.0, 25.0, 25.0 ],
					"comment" : "Y"
				}

			}
, 			{
				"box" : 				{
					"maxclass" : "outlet",
					"id" : "obj-1",
					"numinlets" : 1,
					"numoutlets" : 0,
					"patching_rect" : [ 30.0, 240.0, 25.0, 25.0 ],
					"comment" : "X"
				}

			}
, 			{
				"box" : 				{
					"maxclass" : "button",
					"id" : "obj-344",
					"numinlets" : 1,
					"numoutlets" : 1,
					"patching_rect" : [ 765.0, 210.0, 20.0, 20.0 ],
					"outlettype" : [ "bang" ]
				}

			}
, 			{
				"box" : 				{
					"maxclass" : "newobj",
					"text" : "scale 0 127 0 1",
					"id" : "obj-342",
					"fontname" : "Arial",
					"numinlets" : 6,
					"numoutlets" : 1,
					"patching_rect" : [ 765.0, 150.0, 92.0, 20.0 ],
					"fontsize" : 12.0,
					"outlettype" : [ "" ]
				}

			}
, 			{
				"box" : 				{
					"maxclass" : "button",
					"id" : "obj-340",
					"numinlets" : 1,
					"numoutlets" : 1,
					"patching_rect" : [ 660.0, 210.0, 20.0, 20.0 ],
					"outlettype" : [ "bang" ]
				}

			}
, 			{
				"box" : 				{
					"maxclass" : "button",
					"id" : "obj-338",
					"numinlets" : 1,
					"numoutlets" : 1,
					"patching_rect" : [ 375.0, 210.0, 20.0, 20.0 ],
					"outlettype" : [ "bang" ]
				}

			}
, 			{
				"box" : 				{
					"maxclass" : "button",
					"id" : "obj-336",
					"numinlets" : 1,
					"numoutlets" : 1,
					"patching_rect" : [ 465.0, 210.0, 20.0, 20.0 ],
					"outlettype" : [ "bang" ]
				}

			}
, 			{
				"box" : 				{
					"maxclass" : "button",
					"id" : "obj-334",
					"numinlets" : 1,
					"numoutlets" : 1,
					"patching_rect" : [ 570.0, 210.0, 20.0, 20.0 ],
					"outlettype" : [ "bang" ]
				}

			}
, 			{
				"box" : 				{
					"maxclass" : "newobj",
					"text" : "scale 0 127 0 1",
					"id" : "obj-332",
					"fontname" : "Arial",
					"numinlets" : 6,
					"numoutlets" : 1,
					"patching_rect" : [ 660.0, 150.0, 92.0, 20.0 ],
					"fontsize" : 12.0,
					"outlettype" : [ "" ]
				}

			}
, 			{
				"box" : 				{
					"maxclass" : "newobj",
					"text" : "scale 0 127 0 1",
					"id" : "obj-331",
					"fontname" : "Arial",
					"numinlets" : 6,
					"numoutlets" : 1,
					"patching_rect" : [ 570.0, 150.0, 92.0, 20.0 ],
					"fontsize" : 12.0,
					"outlettype" : [ "" ]
				}

			}
, 			{
				"box" : 				{
					"maxclass" : "newobj",
					"text" : "scale 0 127 0 1",
					"id" : "obj-330",
					"fontname" : "Arial",
					"numinlets" : 6,
					"numoutlets" : 1,
					"patching_rect" : [ 465.0, 150.0, 92.0, 20.0 ],
					"fontsize" : 12.0,
					"outlettype" : [ "" ]
				}

			}
, 			{
				"box" : 				{
					"maxclass" : "newobj",
					"text" : "scale 0 127 0 1",
					"id" : "obj-329",
					"fontname" : "Arial",
					"numinlets" : 6,
					"numoutlets" : 1,
					"patching_rect" : [ 375.0, 150.0, 92.0, 20.0 ],
					"fontsize" : 12.0,
					"outlettype" : [ "" ]
				}

			}
, 			{
				"box" : 				{
					"maxclass" : "comment",
					"text" : "8",
					"id" : "obj-323",
					"fontname" : "Arial",
					"numinlets" : 1,
					"numoutlets" : 0,
					"patching_rect" : [ 1005.0, 90.0, 47.0, 20.0 ],
					"fontsize" : 12.0
				}

			}
, 			{
				"box" : 				{
					"maxclass" : "comment",
					"text" : "7",
					"id" : "obj-324",
					"fontname" : "Arial",
					"numinlets" : 1,
					"numoutlets" : 0,
					"patching_rect" : [ 930.0, 90.0, 59.0, 20.0 ],
					"fontsize" : 12.0
				}

			}
, 			{
				"box" : 				{
					"maxclass" : "number",
					"id" : "obj-325",
					"fontname" : "Palatino Linotype",
					"numinlets" : 1,
					"numoutlets" : 2,
					"patching_rect" : [ 930.0, 150.0, 50.0, 20.0 ],
					"fontsize" : 12.0,
					"outlettype" : [ "int", "bang" ]
				}

			}
, 			{
				"box" : 				{
					"maxclass" : "number",
					"id" : "obj-326",
					"fontname" : "Palatino Linotype",
					"numinlets" : 1,
					"numoutlets" : 2,
					"patching_rect" : [ 1005.0, 150.0, 50.0, 20.0 ],
					"fontsize" : 12.0,
					"outlettype" : [ "int", "bang" ]
				}

			}
, 			{
				"box" : 				{
					"maxclass" : "newobj",
					"text" : "ctlin 56",
					"id" : "obj-327",
					"fontname" : "Arial",
					"numinlets" : 1,
					"numoutlets" : 2,
					"patching_rect" : [ 1005.0, 120.0, 49.0, 20.0 ],
					"fontsize" : 12.0,
					"outlettype" : [ "int", "int" ]
				}

			}
, 			{
				"box" : 				{
					"maxclass" : "newobj",
					"text" : "ctlin 55",
					"id" : "obj-328",
					"fontname" : "Arial",
					"numinlets" : 1,
					"numoutlets" : 2,
					"patching_rect" : [ 930.0, 120.0, 49.0, 20.0 ],
					"fontsize" : 12.0,
					"outlettype" : [ "int", "int" ]
				}

			}
, 			{
				"box" : 				{
					"maxclass" : "comment",
					"text" : "6",
					"id" : "obj-315",
					"fontname" : "Arial",
					"numinlets" : 1,
					"numoutlets" : 0,
					"patching_rect" : [ 870.0, 90.0, 47.0, 20.0 ],
					"fontsize" : 12.0
				}

			}
, 			{
				"box" : 				{
					"maxclass" : "comment",
					"text" : "5",
					"id" : "obj-317",
					"fontname" : "Arial",
					"numinlets" : 1,
					"numoutlets" : 0,
					"patching_rect" : [ 765.0, 90.0, 59.0, 20.0 ],
					"fontsize" : 12.0
				}

			}
, 			{
				"box" : 				{
					"maxclass" : "number",
					"id" : "obj-319",
					"fontname" : "Palatino Linotype",
					"numinlets" : 1,
					"numoutlets" : 2,
					"patching_rect" : [ 765.0, 180.0, 50.0, 20.0 ],
					"fontsize" : 12.0,
					"outlettype" : [ "int", "bang" ]
				}

			}
, 			{
				"box" : 				{
					"maxclass" : "number",
					"id" : "obj-320",
					"fontname" : "Palatino Linotype",
					"numinlets" : 1,
					"numoutlets" : 2,
					"patching_rect" : [ 870.0, 150.0, 50.0, 20.0 ],
					"fontsize" : 12.0,
					"outlettype" : [ "int", "bang" ]
				}

			}
, 			{
				"box" : 				{
					"maxclass" : "newobj",
					"text" : "ctlin 54",
					"id" : "obj-321",
					"fontname" : "Arial",
					"numinlets" : 1,
					"numoutlets" : 2,
					"patching_rect" : [ 870.0, 120.0, 49.0, 20.0 ],
					"fontsize" : 12.0,
					"outlettype" : [ "int", "int" ]
				}

			}
, 			{
				"box" : 				{
					"maxclass" : "newobj",
					"text" : "ctlin 53",
					"id" : "obj-322",
					"fontname" : "Arial",
					"numinlets" : 1,
					"numoutlets" : 2,
					"patching_rect" : [ 765.0, 120.0, 49.0, 20.0 ],
					"fontsize" : 12.0,
					"outlettype" : [ "int", "int" ]
				}

			}
, 			{
				"box" : 				{
					"maxclass" : "comment",
					"text" : "4",
					"id" : "obj-281",
					"fontname" : "Arial",
					"numinlets" : 1,
					"numoutlets" : 0,
					"patching_rect" : [ 660.0, 91.0, 48.099998, 20.0 ],
					"fontsize" : 12.0
				}

			}
, 			{
				"box" : 				{
					"maxclass" : "comment",
					"text" : "3",
					"id" : "obj-291",
					"fontname" : "Arial",
					"numinlets" : 1,
					"numoutlets" : 0,
					"patching_rect" : [ 570.0, 90.0, 59.0, 20.0 ],
					"fontsize" : 12.0
				}

			}
, 			{
				"box" : 				{
					"maxclass" : "number",
					"id" : "obj-293",
					"fontname" : "Palatino Linotype",
					"numinlets" : 1,
					"numoutlets" : 2,
					"patching_rect" : [ 570.0, 180.0, 50.0, 20.0 ],
					"fontsize" : 12.0,
					"outlettype" : [ "int", "bang" ]
				}

			}
, 			{
				"box" : 				{
					"maxclass" : "number",
					"id" : "obj-295",
					"fontname" : "Palatino Linotype",
					"numinlets" : 1,
					"numoutlets" : 2,
					"patching_rect" : [ 660.0, 180.0, 50.0, 20.0 ],
					"fontsize" : 12.0,
					"outlettype" : [ "int", "bang" ]
				}

			}
, 			{
				"box" : 				{
					"maxclass" : "newobj",
					"text" : "ctlin 52",
					"id" : "obj-297",
					"fontname" : "Arial",
					"numinlets" : 1,
					"numoutlets" : 2,
					"patching_rect" : [ 660.0, 120.0, 49.0, 20.0 ],
					"fontsize" : 12.0,
					"outlettype" : [ "int", "int" ]
				}

			}
, 			{
				"box" : 				{
					"maxclass" : "newobj",
					"text" : "ctlin 51",
					"id" : "obj-298",
					"fontname" : "Arial",
					"numinlets" : 1,
					"numoutlets" : 2,
					"patching_rect" : [ 570.0, 120.0, 49.0, 20.0 ],
					"fontsize" : 12.0,
					"outlettype" : [ "int", "int" ]
				}

			}
, 			{
				"box" : 				{
					"maxclass" : "comment",
					"text" : "2",
					"id" : "obj-269",
					"fontname" : "Arial",
					"numinlets" : 1,
					"numoutlets" : 0,
					"patching_rect" : [ 465.0, 90.0, 47.0, 20.0 ],
					"fontsize" : 12.0
				}

			}
, 			{
				"box" : 				{
					"maxclass" : "comment",
					"text" : "1",
					"id" : "obj-270",
					"fontname" : "Arial",
					"numinlets" : 1,
					"numoutlets" : 0,
					"patching_rect" : [ 375.0, 90.0, 59.0, 20.0 ],
					"fontsize" : 12.0
				}

			}
, 			{
				"box" : 				{
					"maxclass" : "number",
					"id" : "obj-271",
					"fontname" : "Palatino Linotype",
					"numinlets" : 1,
					"numoutlets" : 2,
					"patching_rect" : [ 375.0, 180.0, 50.0, 20.0 ],
					"fontsize" : 12.0,
					"outlettype" : [ "int", "bang" ]
				}

			}
, 			{
				"box" : 				{
					"maxclass" : "number",
					"id" : "obj-272",
					"fontname" : "Palatino Linotype",
					"numinlets" : 1,
					"numoutlets" : 2,
					"patching_rect" : [ 465.0, 180.0, 50.0, 20.0 ],
					"fontsize" : 12.0,
					"outlettype" : [ "int", "bang" ]
				}

			}
, 			{
				"box" : 				{
					"maxclass" : "newobj",
					"text" : "ctlin 50",
					"id" : "obj-277",
					"fontname" : "Arial",
					"numinlets" : 1,
					"numoutlets" : 2,
					"patching_rect" : [ 465.0, 120.0, 49.0, 20.0 ],
					"fontsize" : 12.0,
					"outlettype" : [ "int", "int" ]
				}

			}
, 			{
				"box" : 				{
					"maxclass" : "newobj",
					"text" : "ctlin 49",
					"id" : "obj-279",
					"fontname" : "Arial",
					"numinlets" : 1,
					"numoutlets" : 2,
					"patching_rect" : [ 375.0, 120.0, 49.0, 20.0 ],
					"fontsize" : 12.0,
					"outlettype" : [ "int", "int" ]
				}

			}
, 			{
				"box" : 				{
					"maxclass" : "newobj",
					"text" : "scale 0 127 0 1",
					"id" : "obj-67",
					"fontname" : "Arial",
					"numinlets" : 6,
					"numoutlets" : 1,
					"patching_rect" : [ 270.0, 165.0, 92.0, 20.0 ],
					"fontsize" : 12.0,
					"outlettype" : [ "" ]
				}

			}
, 			{
				"box" : 				{
					"maxclass" : "comment",
					"text" : "Hold Button",
					"linecount" : 2,
					"id" : "obj-80",
					"fontname" : "Arial",
					"numinlets" : 1,
					"numoutlets" : 0,
					"patching_rect" : [ 268.0, 89.0, 47.0, 34.0 ],
					"fontsize" : 12.0
				}

			}
, 			{
				"box" : 				{
					"maxclass" : "comment",
					"text" : "FX Depth Dial ",
					"linecount" : 3,
					"id" : "obj-166",
					"fontname" : "Arial",
					"numinlets" : 1,
					"numoutlets" : 0,
					"patching_rect" : [ 210.0, 89.0, 47.0, 48.0 ],
					"fontsize" : 12.0
				}

			}
, 			{
				"box" : 				{
					"maxclass" : "comment",
					"text" : "FX Level Slider",
					"linecount" : 2,
					"id" : "obj-176",
					"fontname" : "Arial",
					"numinlets" : 1,
					"numoutlets" : 0,
					"patching_rect" : [ 150.0, 89.0, 59.0, 34.0 ],
					"fontsize" : 12.0
				}

			}
, 			{
				"box" : 				{
					"maxclass" : "number",
					"id" : "obj-181",
					"fontname" : "Palatino Linotype",
					"numinlets" : 1,
					"numoutlets" : 2,
					"patching_rect" : [ 270.0, 195.0, 50.0, 20.0 ],
					"fontsize" : 12.0,
					"outlettype" : [ "int", "bang" ]
				}

			}
, 			{
				"box" : 				{
					"maxclass" : "number",
					"id" : "obj-185",
					"fontname" : "Palatino Linotype",
					"numinlets" : 1,
					"numoutlets" : 2,
					"patching_rect" : [ 150.0, 165.0, 50.0, 20.0 ],
					"fontsize" : 12.0,
					"outlettype" : [ "int", "bang" ]
				}

			}
, 			{
				"box" : 				{
					"maxclass" : "number",
					"id" : "obj-189",
					"fontname" : "Palatino Linotype",
					"numinlets" : 1,
					"numoutlets" : 2,
					"patching_rect" : [ 210.0, 165.0, 50.0, 20.0 ],
					"fontsize" : 12.0,
					"outlettype" : [ "int", "bang" ]
				}

			}
, 			{
				"box" : 				{
					"maxclass" : "newobj",
					"text" : "ctlin 95",
					"id" : "obj-191",
					"fontname" : "Arial",
					"numinlets" : 1,
					"numoutlets" : 2,
					"patching_rect" : [ 270.0, 135.0, 49.0, 20.0 ],
					"fontsize" : 12.0,
					"outlettype" : [ "int", "int" ]
				}

			}
, 			{
				"box" : 				{
					"maxclass" : "newobj",
					"text" : "ctlin 94",
					"id" : "obj-193",
					"fontname" : "Arial",
					"numinlets" : 1,
					"numoutlets" : 2,
					"patching_rect" : [ 210.0, 135.0, 49.0, 20.0 ],
					"fontsize" : 12.0,
					"outlettype" : [ "int", "int" ]
				}

			}
, 			{
				"box" : 				{
					"maxclass" : "newobj",
					"text" : "ctlin 93",
					"id" : "obj-195",
					"fontname" : "Arial",
					"numinlets" : 1,
					"numoutlets" : 2,
					"patching_rect" : [ 150.0, 134.0, 49.0, 20.0 ],
					"fontsize" : 12.0,
					"outlettype" : [ "int", "int" ]
				}

			}
, 			{
				"box" : 				{
					"maxclass" : "newobj",
					"text" : "ctlin 13",
					"id" : "obj-227",
					"fontname" : "Palatino Linotype",
					"numinlets" : 1,
					"numoutlets" : 2,
					"patching_rect" : [ 90.0, 134.0, 49.0, 20.0 ],
					"fontsize" : 12.0,
					"outlettype" : [ "int", "int" ]
				}

			}
, 			{
				"box" : 				{
					"maxclass" : "comment",
					"text" : "X",
					"id" : "obj-229",
					"fontname" : "Palatino Linotype",
					"numinlets" : 1,
					"numoutlets" : 0,
					"patching_rect" : [ 29.999992, 89.0, 32.0, 34.0 ],
					"fontface" : 1,
					"fontsize" : 24.0
				}

			}
, 			{
				"box" : 				{
					"maxclass" : "number",
					"id" : "obj-235",
					"fontname" : "Palatino Linotype",
					"numinlets" : 1,
					"numoutlets" : 2,
					"patching_rect" : [ 30.0, 165.0, 50.0, 20.0 ],
					"fontsize" : 12.0,
					"outlettype" : [ "int", "bang" ]
				}

			}
, 			{
				"box" : 				{
					"maxclass" : "newobj",
					"text" : "ctlin 12",
					"id" : "obj-237",
					"fontname" : "Palatino Linotype",
					"numinlets" : 1,
					"numoutlets" : 2,
					"patching_rect" : [ 29.999992, 134.0, 49.0, 20.0 ],
					"fontsize" : 12.0,
					"outlettype" : [ "int", "int" ]
				}

			}
, 			{
				"box" : 				{
					"maxclass" : "comment",
					"text" : "Y",
					"id" : "obj-239",
					"fontname" : "Palatino Linotype",
					"numinlets" : 1,
					"numoutlets" : 0,
					"patching_rect" : [ 90.0, 89.0, 32.0, 34.0 ],
					"fontface" : 1,
					"fontsize" : 24.0
				}

			}
, 			{
				"box" : 				{
					"maxclass" : "comment",
					"text" : "KAOSS PAD",
					"id" : "obj-252",
					"fontname" : "Palatino Linotype",
					"numinlets" : 1,
					"numoutlets" : 0,
					"patching_rect" : [ 465.0, 15.0, 156.0, 34.0 ],
					"fontface" : 1,
					"fontsize" : 24.0
				}

			}
, 			{
				"box" : 				{
					"maxclass" : "number",
					"id" : "obj-254",
					"fontname" : "Palatino Linotype",
					"numinlets" : 1,
					"numoutlets" : 2,
					"patching_rect" : [ 90.0, 165.0, 50.0, 20.0 ],
					"fontsize" : 12.0,
					"outlettype" : [ "int", "bang" ]
				}

			}
 ],
		"lines" : [ 			{
				"patchline" : 				{
					"source" : [ "obj-326", 0 ],
					"destination" : [ "obj-13", 0 ],
					"hidden" : 0,
					"midpoints" : [  ]
				}

			}
, 			{
				"patchline" : 				{
					"source" : [ "obj-325", 0 ],
					"destination" : [ "obj-12", 0 ],
					"hidden" : 0,
					"midpoints" : [  ]
				}

			}
, 			{
				"patchline" : 				{
					"source" : [ "obj-320", 0 ],
					"destination" : [ "obj-11", 0 ],
					"hidden" : 0,
					"midpoints" : [  ]
				}

			}
, 			{
				"patchline" : 				{
					"source" : [ "obj-344", 0 ],
					"destination" : [ "obj-10", 0 ],
					"hidden" : 0,
					"midpoints" : [  ]
				}

			}
, 			{
				"patchline" : 				{
					"source" : [ "obj-340", 0 ],
					"destination" : [ "obj-9", 0 ],
					"hidden" : 0,
					"midpoints" : [  ]
				}

			}
, 			{
				"patchline" : 				{
					"source" : [ "obj-334", 0 ],
					"destination" : [ "obj-8", 0 ],
					"hidden" : 0,
					"midpoints" : [  ]
				}

			}
, 			{
				"patchline" : 				{
					"source" : [ "obj-336", 0 ],
					"destination" : [ "obj-7", 0 ],
					"hidden" : 0,
					"midpoints" : [  ]
				}

			}
, 			{
				"patchline" : 				{
					"source" : [ "obj-338", 0 ],
					"destination" : [ "obj-6", 0 ],
					"hidden" : 0,
					"midpoints" : [  ]
				}

			}
, 			{
				"patchline" : 				{
					"source" : [ "obj-181", 0 ],
					"destination" : [ "obj-5", 0 ],
					"hidden" : 0,
					"midpoints" : [  ]
				}

			}
, 			{
				"patchline" : 				{
					"source" : [ "obj-189", 0 ],
					"destination" : [ "obj-4", 0 ],
					"hidden" : 0,
					"midpoints" : [  ]
				}

			}
, 			{
				"patchline" : 				{
					"source" : [ "obj-185", 0 ],
					"destination" : [ "obj-3", 0 ],
					"hidden" : 0,
					"midpoints" : [  ]
				}

			}
, 			{
				"patchline" : 				{
					"source" : [ "obj-254", 0 ],
					"destination" : [ "obj-2", 0 ],
					"hidden" : 0,
					"midpoints" : [  ]
				}

			}
, 			{
				"patchline" : 				{
					"source" : [ "obj-235", 0 ],
					"destination" : [ "obj-1", 0 ],
					"hidden" : 0,
					"midpoints" : [  ]
				}

			}
, 			{
				"patchline" : 				{
					"source" : [ "obj-237", 0 ],
					"destination" : [ "obj-235", 0 ],
					"hidden" : 0,
					"midpoints" : [ 39.499992, 161.0, 39.5, 161.0 ]
				}

			}
, 			{
				"patchline" : 				{
					"source" : [ "obj-227", 0 ],
					"destination" : [ "obj-254", 0 ],
					"hidden" : 0,
					"midpoints" : [ 99.5, 161.0, 99.5, 161.0 ]
				}

			}
, 			{
				"patchline" : 				{
					"source" : [ "obj-195", 0 ],
					"destination" : [ "obj-185", 0 ],
					"hidden" : 0,
					"midpoints" : [ 159.5, 161.0, 159.5, 161.0 ]
				}

			}
, 			{
				"patchline" : 				{
					"source" : [ "obj-193", 0 ],
					"destination" : [ "obj-189", 0 ],
					"hidden" : 0,
					"midpoints" : [ 219.5, 161.0, 219.5, 161.0 ]
				}

			}
, 			{
				"patchline" : 				{
					"source" : [ "obj-191", 0 ],
					"destination" : [ "obj-67", 0 ],
					"hidden" : 0,
					"midpoints" : [ 279.5, 155.0, 279.5, 155.0 ]
				}

			}
, 			{
				"patchline" : 				{
					"source" : [ "obj-67", 0 ],
					"destination" : [ "obj-181", 0 ],
					"hidden" : 0,
					"midpoints" : [ 279.5, 185.0, 279.5, 185.0 ]
				}

			}
, 			{
				"patchline" : 				{
					"source" : [ "obj-321", 0 ],
					"destination" : [ "obj-320", 0 ],
					"hidden" : 0,
					"midpoints" : [ 879.5, 141.0, 879.5, 141.0 ]
				}

			}
, 			{
				"patchline" : 				{
					"source" : [ "obj-328", 0 ],
					"destination" : [ "obj-325", 0 ],
					"hidden" : 0,
					"midpoints" : [ 939.5, 141.0, 939.5, 141.0 ]
				}

			}
, 			{
				"patchline" : 				{
					"source" : [ "obj-327", 0 ],
					"destination" : [ "obj-326", 0 ],
					"hidden" : 0,
					"midpoints" : [ 1014.5, 141.0, 1014.5, 141.0 ]
				}

			}
, 			{
				"patchline" : 				{
					"source" : [ "obj-279", 0 ],
					"destination" : [ "obj-329", 0 ],
					"hidden" : 0,
					"midpoints" : [ 384.5, 141.0, 384.5, 141.0 ]
				}

			}
, 			{
				"patchline" : 				{
					"source" : [ "obj-329", 0 ],
					"destination" : [ "obj-271", 0 ],
					"hidden" : 0,
					"midpoints" : [ 384.5, 171.0, 384.5, 171.0 ]
				}

			}
, 			{
				"patchline" : 				{
					"source" : [ "obj-277", 0 ],
					"destination" : [ "obj-330", 0 ],
					"hidden" : 0,
					"midpoints" : [ 474.5, 141.0, 474.5, 141.0 ]
				}

			}
, 			{
				"patchline" : 				{
					"source" : [ "obj-330", 0 ],
					"destination" : [ "obj-272", 0 ],
					"hidden" : 0,
					"midpoints" : [ 474.5, 171.0, 474.5, 171.0 ]
				}

			}
, 			{
				"patchline" : 				{
					"source" : [ "obj-298", 0 ],
					"destination" : [ "obj-331", 0 ],
					"hidden" : 0,
					"midpoints" : [ 579.5, 141.0, 579.5, 141.0 ]
				}

			}
, 			{
				"patchline" : 				{
					"source" : [ "obj-331", 0 ],
					"destination" : [ "obj-293", 0 ],
					"hidden" : 0,
					"midpoints" : [ 579.5, 171.0, 579.5, 171.0 ]
				}

			}
, 			{
				"patchline" : 				{
					"source" : [ "obj-297", 0 ],
					"destination" : [ "obj-332", 0 ],
					"hidden" : 0,
					"midpoints" : [ 669.5, 141.0, 669.5, 141.0 ]
				}

			}
, 			{
				"patchline" : 				{
					"source" : [ "obj-332", 0 ],
					"destination" : [ "obj-295", 0 ],
					"hidden" : 0,
					"midpoints" : [ 669.5, 171.0, 669.5, 171.0 ]
				}

			}
, 			{
				"patchline" : 				{
					"source" : [ "obj-271", 0 ],
					"destination" : [ "obj-338", 0 ],
					"hidden" : 0,
					"midpoints" : [ 384.5, 201.0, 384.5, 201.0 ]
				}

			}
, 			{
				"patchline" : 				{
					"source" : [ "obj-272", 0 ],
					"destination" : [ "obj-336", 0 ],
					"hidden" : 0,
					"midpoints" : [ 474.5, 201.0, 474.5, 201.0 ]
				}

			}
, 			{
				"patchline" : 				{
					"source" : [ "obj-293", 0 ],
					"destination" : [ "obj-334", 0 ],
					"hidden" : 0,
					"midpoints" : [ 579.5, 201.0, 579.5, 201.0 ]
				}

			}
, 			{
				"patchline" : 				{
					"source" : [ "obj-295", 0 ],
					"destination" : [ "obj-340", 0 ],
					"hidden" : 0,
					"midpoints" : [ 669.5, 201.0, 669.5, 201.0 ]
				}

			}
, 			{
				"patchline" : 				{
					"source" : [ "obj-322", 0 ],
					"destination" : [ "obj-342", 0 ],
					"hidden" : 0,
					"midpoints" : [ 774.5, 141.0, 774.5, 141.0 ]
				}

			}
, 			{
				"patchline" : 				{
					"source" : [ "obj-342", 0 ],
					"destination" : [ "obj-319", 0 ],
					"hidden" : 0,
					"midpoints" : [ 774.5, 171.0, 774.5, 171.0 ]
				}

			}
, 			{
				"patchline" : 				{
					"source" : [ "obj-319", 0 ],
					"destination" : [ "obj-344", 0 ],
					"hidden" : 0,
					"midpoints" : [ 774.5, 201.0, 774.5, 201.0 ]
				}

			}
 ]
	}

}
