{
	"patcher" : 	{
		"fileversion" : 1,
		"rect" : [ 414.0, 207.0, 640.0, 480.0 ],
		"bglocked" : 0,
		"defrect" : [ 414.0, 207.0, 640.0, 480.0 ],
		"openrect" : [ 0.0, 0.0, 0.0, 0.0 ],
		"openinpresentation" : 0,
		"default_fontsize" : 12.0,
		"default_fontface" : 0,
		"default_fontname" : "Arial",
		"gridonopen" : 0,
		"gridsize" : [ 15.0, 15.0 ],
		"gridsnaponopen" : 0,
		"toolbarvisible" : 1,
		"boxanimatetime" : 200,
		"imprint" : 0,
		"enablehscroll" : 1,
		"enablevscroll" : 1,
		"devicewidth" : 0.0,
		"boxes" : [ 			{
				"box" : 				{
					"maxclass" : "inlet",
					"outlettype" : [ "" ],
					"patching_rect" : [ 386.0, 69.0, 25.0, 25.0 ],
					"id" : "obj-14",
					"numinlets" : 0,
					"numoutlets" : 1,
					"comment" : ""
				}

			}
, 			{
				"box" : 				{
					"maxclass" : "inlet",
					"outlettype" : [ "" ],
					"patching_rect" : [ 207.0, 67.0, 25.0, 25.0 ],
					"id" : "obj-13",
					"numinlets" : 0,
					"numoutlets" : 1,
					"comment" : ""
				}

			}
, 			{
				"box" : 				{
					"maxclass" : "outlet",
					"patching_rect" : [ 106.0, 389.0, 25.0, 25.0 ],
					"id" : "obj-12",
					"numinlets" : 1,
					"numoutlets" : 0,
					"comment" : ""
				}

			}
, 			{
				"box" : 				{
					"maxclass" : "inlet",
					"outlettype" : [ "signal" ],
					"patching_rect" : [ 120.0, 170.0, 25.0, 25.0 ],
					"id" : "obj-11",
					"numinlets" : 0,
					"numoutlets" : 1,
					"comment" : ""
				}

			}
, 			{
				"box" : 				{
					"maxclass" : "newobj",
					"text" : "unpack 0. 0. 0. 0.",
					"outlettype" : [ "float", "float", "float", "float" ],
					"patching_rect" : [ 383.0, 272.0, 103.0, 20.0 ],
					"id" : "obj-10",
					"fontname" : "Arial",
					"numinlets" : 1,
					"fontsize" : 12.0,
					"numoutlets" : 4
				}

			}
, 			{
				"box" : 				{
					"maxclass" : "newobj",
					"text" : "*~",
					"outlettype" : [ "signal" ],
					"patching_rect" : [ 122.0, 329.0, 32.5, 20.0 ],
					"id" : "obj-8",
					"fontname" : "Arial",
					"numinlets" : 2,
					"fontsize" : 12.0,
					"numoutlets" : 1
				}

			}
, 			{
				"box" : 				{
					"maxclass" : "newobj",
					"text" : "*~",
					"outlettype" : [ "signal" ],
					"patching_rect" : [ 174.0, 328.0, 32.5, 20.0 ],
					"id" : "obj-7",
					"fontname" : "Arial",
					"numinlets" : 2,
					"fontsize" : 12.0,
					"numoutlets" : 1
				}

			}
, 			{
				"box" : 				{
					"maxclass" : "newobj",
					"text" : "*~",
					"outlettype" : [ "signal" ],
					"patching_rect" : [ 222.0, 329.0, 32.5, 20.0 ],
					"id" : "obj-6",
					"fontname" : "Arial",
					"numinlets" : 2,
					"fontsize" : 12.0,
					"numoutlets" : 1
				}

			}
, 			{
				"box" : 				{
					"maxclass" : "newobj",
					"text" : "*~",
					"outlettype" : [ "signal" ],
					"patching_rect" : [ 274.0, 331.0, 32.5, 20.0 ],
					"id" : "obj-5",
					"fontname" : "Arial",
					"numinlets" : 2,
					"fontsize" : 12.0,
					"numoutlets" : 1
				}

			}
, 			{
				"box" : 				{
					"maxclass" : "newobj",
					"text" : "unpack 0 0 0 0",
					"outlettype" : [ "int", "int", "int", "int" ],
					"patching_rect" : [ 207.0, 268.0, 89.0, 20.0 ],
					"id" : "obj-4",
					"fontname" : "Arial",
					"numinlets" : 1,
					"fontsize" : 12.0,
					"numoutlets" : 4
				}

			}
, 			{
				"box" : 				{
					"maxclass" : "newobj",
					"text" : "tapout~ 100 500 1000 4000",
					"outlettype" : [ "signal", "signal", "signal", "signal" ],
					"patching_rect" : [ 122.0, 298.0, 158.0, 20.0 ],
					"id" : "obj-2",
					"fontname" : "Arial",
					"numinlets" : 4,
					"fontsize" : 12.0,
					"numoutlets" : 4
				}

			}
, 			{
				"box" : 				{
					"maxclass" : "newobj",
					"text" : "tapin~ 10000",
					"outlettype" : [ "tapconnect" ],
					"patching_rect" : [ 122.0, 268.0, 80.0, 20.0 ],
					"id" : "obj-1",
					"fontname" : "Arial",
					"numinlets" : 1,
					"fontsize" : 12.0,
					"numoutlets" : 1
				}

			}
 ],
		"lines" : [ 			{
				"patchline" : 				{
					"source" : [ "obj-1", 0 ],
					"destination" : [ "obj-2", 0 ],
					"hidden" : 0,
					"midpoints" : [  ]
				}

			}
, 			{
				"patchline" : 				{
					"source" : [ "obj-4", 0 ],
					"destination" : [ "obj-2", 0 ],
					"hidden" : 0,
					"midpoints" : [  ]
				}

			}
, 			{
				"patchline" : 				{
					"source" : [ "obj-4", 1 ],
					"destination" : [ "obj-2", 1 ],
					"hidden" : 0,
					"midpoints" : [  ]
				}

			}
, 			{
				"patchline" : 				{
					"source" : [ "obj-4", 2 ],
					"destination" : [ "obj-2", 2 ],
					"hidden" : 0,
					"midpoints" : [  ]
				}

			}
, 			{
				"patchline" : 				{
					"source" : [ "obj-4", 3 ],
					"destination" : [ "obj-2", 3 ],
					"hidden" : 0,
					"midpoints" : [  ]
				}

			}
, 			{
				"patchline" : 				{
					"source" : [ "obj-2", 0 ],
					"destination" : [ "obj-8", 0 ],
					"hidden" : 0,
					"midpoints" : [  ]
				}

			}
, 			{
				"patchline" : 				{
					"source" : [ "obj-2", 1 ],
					"destination" : [ "obj-7", 0 ],
					"hidden" : 0,
					"midpoints" : [  ]
				}

			}
, 			{
				"patchline" : 				{
					"source" : [ "obj-2", 2 ],
					"destination" : [ "obj-6", 0 ],
					"hidden" : 0,
					"midpoints" : [  ]
				}

			}
, 			{
				"patchline" : 				{
					"source" : [ "obj-2", 3 ],
					"destination" : [ "obj-5", 0 ],
					"hidden" : 0,
					"midpoints" : [  ]
				}

			}
, 			{
				"patchline" : 				{
					"source" : [ "obj-14", 0 ],
					"destination" : [ "obj-10", 0 ],
					"hidden" : 0,
					"midpoints" : [  ]
				}

			}
, 			{
				"patchline" : 				{
					"source" : [ "obj-13", 0 ],
					"destination" : [ "obj-4", 0 ],
					"hidden" : 0,
					"midpoints" : [  ]
				}

			}
, 			{
				"patchline" : 				{
					"source" : [ "obj-5", 0 ],
					"destination" : [ "obj-12", 0 ],
					"hidden" : 0,
					"midpoints" : [  ]
				}

			}
, 			{
				"patchline" : 				{
					"source" : [ "obj-6", 0 ],
					"destination" : [ "obj-12", 0 ],
					"hidden" : 0,
					"midpoints" : [  ]
				}

			}
, 			{
				"patchline" : 				{
					"source" : [ "obj-7", 0 ],
					"destination" : [ "obj-12", 0 ],
					"hidden" : 0,
					"midpoints" : [  ]
				}

			}
, 			{
				"patchline" : 				{
					"source" : [ "obj-8", 0 ],
					"destination" : [ "obj-12", 0 ],
					"hidden" : 0,
					"midpoints" : [  ]
				}

			}
, 			{
				"patchline" : 				{
					"source" : [ "obj-11", 0 ],
					"destination" : [ "obj-1", 0 ],
					"hidden" : 0,
					"midpoints" : [  ]
				}

			}
, 			{
				"patchline" : 				{
					"source" : [ "obj-10", 3 ],
					"destination" : [ "obj-5", 1 ],
					"hidden" : 0,
					"midpoints" : [  ]
				}

			}
, 			{
				"patchline" : 				{
					"source" : [ "obj-10", 2 ],
					"destination" : [ "obj-6", 1 ],
					"hidden" : 0,
					"midpoints" : [  ]
				}

			}
, 			{
				"patchline" : 				{
					"source" : [ "obj-10", 1 ],
					"destination" : [ "obj-7", 1 ],
					"hidden" : 0,
					"midpoints" : [  ]
				}

			}
, 			{
				"patchline" : 				{
					"source" : [ "obj-10", 0 ],
					"destination" : [ "obj-8", 1 ],
					"hidden" : 0,
					"midpoints" : [  ]
				}

			}
 ]
	}

}
